<?xml version="1.0" encoding="utf-8"?>
<!-- Generator: Adobe Illustrator 21.0.0, SVG Export Plug-In . SVG Version: 6.00 Build 0)  -->
<svg version="1.1" id="Layer_1" xmlns="http://www.w3.org/2000/svg" xmlns:xlink="http://www.w3.org/1999/xlink" x="0px" y="0px"
	 viewBox="0 0 800 189" style="enable-background:new 0 0 800 189;" xml:space="preserve">
<style type="text/css">
	.st0{opacity:0.58;}
	.st1{fill:none;stroke:#0DCCC7;stroke-width:12;stroke-linecap:round;stroke-miterlimit:10;}
	.st2{fill:#0DCCC7;}
	.st3{enable-background:new    ;}
	.st4{fill:#345ECC;}
	.st5{fill:#274799;}
	.st6{fill:#FFFFFF;}
</style>
<g class="st0">
	<circle class="st1" cx="82.5" cy="93" r="67.5"/>
	<g>
		<path class="st2" d="M44.3,102.6c2.3,0.3,4.1,1,5.7,1.8c1.6,0.8,3.1,1.7,4.4,2.6c2.7,1.8,5,3.8,7.2,5.9s4.2,4.2,6.2,6.4
			c2,2.2,3.8,4.4,5.7,6.8l-8.3,0.4c4.1-5.9,8.3-11.6,12.6-17.4c4.3-5.7,8.6-11.4,13-17.1c4.4-5.6,8.9-11.2,13.6-16.7
			c2.4-2.7,4.8-5.4,7.3-8c1.3-1.3,2.6-2.6,4-3.8s2.9-2.5,4.7-3.6c1.4-0.9,3.3-0.4,4.2,1c0.9,1.4,0.5,3.2-0.8,4.1l-0.1,0.1
			c-1.2,0.8-2.4,1.9-3.6,3.1s-2.4,2.4-3.5,3.7c-2.3,2.6-4.5,5.3-6.7,8.1c-4.3,5.5-8.5,11.2-12.6,17s-8.1,11.6-12,17.5
			s-7.8,11.8-11.6,17.8l-3.7,5.8l-4.7-5.4c-1.7-1.9-3.6-4-5.5-5.9s-3.8-3.7-5.9-5.4c-2-1.7-4.1-3.3-6.1-4.5c-1-0.6-2-1.2-3-1.6
			c-0.9-0.4-1.8-0.6-2.3-0.6c-3.3-0.2-5.8-3-5.6-6.4c0.2-3.3,3-5.8,6.4-5.6c0.2,0,0.3,0,0.5,0.1L44.3,102.6z"/>
	</g>
</g>
<g class="st3">
	<path class="st4" d="M188.5,46.9c3.2-0.4,11.4-1,18-1c29.1,0,36.8,16.7,36.8,39.8c0,17.5-3.3,29.7-12,38
		c-7.5,6.9-17.4,8.5-24.4,8.5c-7.6,0-13.9-0.5-21.1-1.4V56.1c0-5,0.3-6.8,1.8-9L188.5,46.9z M212.1,56.6c-2.2-0.5-4.6-0.8-7.3-0.8
		c-1.8,0-3.7,0-5.1,0.1v65.4c2.2,0.3,4.9,0.4,7.7,0.4c10.2,0,21.1-6,21.1-36.1C228.4,66.5,223,58.4,212.1,56.6z"/>
	<path class="st4" d="M261.6,41.6c6,0,7.2,2.6,7.1,7.5s-1.7,8.2-7.8,8.2c-5.3,0-7.2-2.4-7.2-8C253.6,44.3,256.2,41.6,261.6,41.6z
		 M266.7,70.7c1,2.1,1.2,3.9,1.2,9.3V123c0,3-0.5,5-1.8,7.1c-0.9,1.4-3.1,1.4-12,1.7v-10.5c0-3.7,0.1-7.7,0.1-11.8V87
		c0-5.8-0.1-9.8-0.3-13.1c1.5-3.2,5.9-3.6,11.7-3.6L266.7,70.7z"/>
	<path class="st4" d="M301.6,113c-2.3,0-3.9-0.1-5.4-0.4l-2.6,2.6c-0.5,0.5-0.6,1.3-0.6,1.8c0,1.2,2.3,2.3,6.6,2.7l5,0.4
		c2.1,0.1,4.1,0.4,6.2,0.5c1.7,0.1,3.5,0.3,4.6,0.5c8,1.5,13.5,6,13.9,13.6c0,11.3-11.7,24.2-27.7,27.9c-3.3,0.6-7.8,1.2-12,1.2
		c-6.4,0-12.4-1.4-13.6-5.7c-1.3-6.4,11.7-17.5,19.8-22.9c3.2,1.7,4,6,1.7,8.2c-4.1,3.5-8.6,8-8.1,10.3c0.3,1,1.5,1.3,3.2,1.3
		c2.6,0,6.3-0.8,8.6-1.2c8.5-2.3,15.1-10.4,14.9-15.7c0-0.4,0-1.4,0-1.8c-1-2.7-2.3-4.9-6.7-5.4c-2.8-0.4-5.7-0.5-8.6-0.6
		c-0.8,0-1.7-0.1-2.4-0.1c-5.9-0.5-9.8-1.8-9.8-1.8c-6.3-1.9-9.5-5.4-9.6-9.3c0-0.9,0.6-1.8,1.7-3.1c1.8-1.8,4.2-3.9,6.2-5.7
		c0.6-0.5,0.5-0.6,1-1.2c-5.5-3.5-8.2-9.5-8.2-17.5c0-14.5,9.5-22.8,22.8-22.8c4.5,0,8.5,1.5,11.4,3c-0.3-0.1-0.4-0.3,0-0.5
		c2.8-0.1,6.4-0.3,9.1-0.4h-0.1c1.7-0.1,4.4-0.3,5.7-0.3c0.5,1,1,2.6,1,4.4c0,3.3-1.5,5.8-4.6,5.8c-1.8,0-2.6,0-4.1-0.1
		c2.1,3.2,3,6.3,3,10.4C323.7,105,315.4,113,301.6,113z M293.1,91.1c0.6,8.1,3.7,13.1,10,13.1c5.8,0,8.1-6,7.5-14.2
		c-0.8-7.8-4-12.5-9.8-12.5C295.8,77.6,292.2,82,293.1,91.1z"/>
	<path class="st4" d="M344.3,41.6c6,0,7.2,2.6,7.1,7.5s-1.7,8.2-7.8,8.2c-5.3,0-7.2-2.4-7.2-8C336.3,44.3,338.9,41.6,344.3,41.6z
		 M349.5,70.7c1,2.1,1.2,3.9,1.2,9.3V123c0,3-0.5,5-1.8,7.1c-0.9,1.4-3.1,1.4-12,1.7v-10.5c0-3.7,0.1-7.7,0.1-11.8V87
		c0-5.8-0.1-9.8-0.3-13.1c1.5-3.2,5.9-3.6,11.7-3.6L349.5,70.7z"/>
	<path class="st4" d="M396.4,121.1c0.1,0.8,0.3,1.8,0.3,3c0,1.2,0,2.6-0.1,3.6c-0.3,0.9-0.9,1.7-1.8,2.4c-3,1.9-7.8,3.1-12,3.1
		c-12.9,0-15.3-11.4-15.3-22V80.6c-3.5-0.1-5.7-0.9-7.6-1.8c0-3.7,0.1-3.7,1.2-4.8c1.9-1.3,3.9-1.8,5.5-2.3c1-0.3,1.3,0,2.1-0.4
		c0.1-3.6,0.5-7.6,0.6-11.2c1-3,4.4-5.4,12.1-5.9v2.1c-0.1,5.4-0.3,9.5-0.3,14.4h16.3c-0.4,7.2-1.4,8.9-4,9.4
		c-0.9,0.1-2.2,0.3-3.2,0.3c-2.6,0.1-4.4,0.1-9.1,0.1c-0.1,5.7-0.3,11.2-0.3,16.6c0,3,0.1,5.7,0.1,8.4v6.3
		c0.5,6.7,1.4,11.4,5.5,11.4c1.7,0.1,6.8-1.7,7.7-2.4L396.4,121.1z"/>
	<path class="st4" d="M406.6,78.8c-0.3-0.8-0.3-1.2-0.3-1.7c0-0.4,0.1-1,0.4-1.7c2.8-2.6,10.9-6.2,19.9-6.4c2.1,0,2.4,0,4.5,0.1
		c10.3,0.6,13.6,7.1,13.6,18.3V93c0,4.8,0,9.8-0.1,14.5c0,3-0.1,8.7-0.1,11.1c0,0-0.4,5.8,3.6,5c-0.1,1.8-0.3,4.8-0.3,5.5
		c-1.2,1.7-4,3.5-8,3.6c-3,0-6-1.9-7.7-3.7c-0.6,0.5-2.1,1.4-2.8,1.9c-3.1,1.5-6.3,1.8-9.9,1.8c-8.7,0-17.1-5.4-17.1-17.4
		c0-15.6,14.4-20.1,22.5-21c1.2-0.1,2.6-0.1,3.7-0.1c1.2,0,2.1,0,2.8,0.1v-6.3c0-5.4-0.5-8.2-4.8-8.2c-4.1,0-9.1,1.8-12.9,3.2
		c-1.4,0.6-2.8,1-4.8,1c-1.8-1.9-2.3-4.1-2.6-5.5L406.6,78.8z M431.4,111.6v-8.5h-1.3c-1.3,0-2.7,0.1-4,0.3h0.1
		c-5.5,1-10.3,3.5-10.3,11.1c0,5.9,2.3,8.1,5.5,8.4h0.8c3.3,0,7.2-1.7,8.7-3.7l-0.1,0.1c0,0.1,0.1-0.8,0.3-1.5
		C431.4,116.1,431.4,114.1,431.4,111.6z"/>
	<path class="st4" d="M475.5,123.8c-0.1,1.8-0.3,4.9-0.3,5.5c-1.3,1.8-4.1,3.5-8,3.6c-1.8,0-3.7-0.8-5.1-1.8
		c-2.4-1.7-3.7-4.2-3.7-6.8V58.7c0-6.2-0.1-10.5-0.3-14.3c1.5-3.6,6.2-4,12.7-4c0.8,3,0.9,5.9,0.9,12.5v65.9
		C471.8,118.8,471.4,124.6,475.5,123.8z"/>
	<path class="st4" d="M507.8,102.3c-5.7,0.9-14.5,2.1-20.8,2.1c-1.3,0-2.4-0.1-4.1-0.8c0.6-6.4,1.7-9.6,4.4-9.8
		c6.9-0.6,16.2-1.8,22.1-2.6c1.2,0.1,2.7,0.8,4,1.4c-0.4,5.1-1.9,9.1-5.7,9.6H507.8z"/>
	<path class="st4" d="M537.4,121.2c2.4,0.3,5.9,0.3,9.4,0.3c5.1,0,12.9,0,18.1-0.1c-0.8,7.2-2.1,9.3-5.4,10.2
		c-3.2,0.1-8.1,0.3-15.2,0.3c-7.7,0-14.7-0.3-19.7-0.8c-0.4-1.8-0.8-3.9-1-5.5v-61c0-5.5,0-11.1-0.3-16.2C524.1,48,527,47,527,47
		c0.8-0.3,1.5-0.8,4.1-0.9h32c-0.4,6.9-1.2,8.7-3.5,9.6c-3.7,0.6-7.5,0.6-12.2,0.6h-10v24.7h23.7c-1,9.1-2.3,10.3-6.3,10.3h-17.4
		V121.2z"/>
	<path class="st4" d="M587.2,84.7l0.4-0.4v39.6c0,2.8-0.3,4.4-1.5,6.2c-1.8,1.5-3.2,1.5-8.9,1.7h-3.3c0.1-6.8,0.3-15.6,0.3-25.3
		V84.8c0-4.1-0.5-7.1-1.4-9.6c0.9-1,2.6-2.1,5.4-3.2c0.8-0.3,1.5-0.3,1.8-0.3c2.3,0,3.9,1.2,4.6,2.7c2.6-1.8,5.3-3.1,7.6-3.9
		c2.7-0.9,5.3-1.4,8.4-1.4c16.1,0,19.2,8.2,19.2,22.9v19.4c0,6.9,0.1,13.3,0.3,18.3c-1.7,1.5-4,2.1-12.5,2.1c-1-1.9-1.4-3.9-1.4-5.8
		V92.3c0-9.3-2.2-12.6-8.7-12.6C593.1,79.7,589.8,81.9,587.2,84.7z"/>
	<path class="st4" d="M665.3,121.1c0.1,0.8,0.3,1.8,0.3,3c0,1.2,0,2.6-0.1,3.6c-0.3,0.9-0.9,1.7-1.8,2.4c-3,1.9-7.8,3.1-12,3.1
		c-12.9,0-15.3-11.4-15.3-22V80.6c-3.5-0.1-5.7-0.9-7.6-1.8c0-3.7,0.1-3.7,1.2-4.8c1.9-1.3,3.9-1.8,5.5-2.3c1-0.3,1.3,0,2.1-0.4
		c0.1-3.6,0.5-7.6,0.6-11.2c1-3,4.4-5.4,12.1-5.9v2.1c-0.1,5.4-0.3,9.5-0.3,14.4h16.3c-0.4,7.2-1.4,8.9-4,9.4
		c-0.9,0.1-2.2,0.3-3.2,0.3c-2.6,0.1-4.4,0.1-9.1,0.1c-0.1,5.7-0.3,11.2-0.3,16.6c0,3,0.1,5.7,0.1,8.4v6.3
		c0.5,6.7,1.4,11.4,5.5,11.4c1.7,0.1,6.8-1.7,7.7-2.4L665.3,121.1z"/>
	<path class="st4" d="M688.9,84.3v40.5c0,2.1-0.1,3.6-1.3,5.3c-2.1,1.5-4,1.7-12.3,1.7c0.1-6.8,0.3-15.6,0.3-25.5l0.1-21.5
		c0-4.1-0.8-7.1-1.7-9.6c1-1,2.7-2.1,5.5-3.2c0.8-0.3,1.3-0.3,1.8-0.3c2.7,0,3.9,0.8,4.6,2.6c2.4-1.7,5.1-2.8,7.6-3.7
		c2.2-0.9,5-1.4,7.5-1c3.7,0.4,6,1.7,6.4,3.6c0,1.9-0.5,5.5-2.3,8.1c-0.9,0.3-0.9,0.3-2.1,0.3c-1.4,0-2.7-0.1-3.7-0.3
		c-0.9-0.3-1.3-0.3-1.7-0.3C694.2,81,691.4,81.9,688.9,84.3z"/>
	<path class="st4" d="M725.5,75.4c1.4,4.4,4.8,16,7.2,24.6c1.2,4.2,2.1,8.6,2.8,11.8c0.9-3.5,2.2-8.2,3.1-12.3
		c1.2-5.1,2.4-10.7,3.7-15.7c1-4.1,2.1-8.5,2.8-11.8c1.5-1.3,2.4-1.7,5-1.7c0.8,0,2.4,0,3.7,0.1c0.8,0,2.2,0.1,2.8,0.1
		c0.5,1,0.9,2.2,0.9,3.2c0,1.2-0.3,2.3-0.6,3.6c-3.5,13.9-10,36.8-16.7,55.6c-7.1,18.1-13.9,23.7-20.2,23.7c-6.7,0-10-2.3-10.8-4.6
		c0-1.3,0.9-4,0.9-4c2.2-0.8,3.3-0.5,4.9-0.5c1.7,0,3.5,0,5.7-0.9l-0.1,0.1c3.1-1.5,6.8-11.3,8.4-19.2c-0.1-0.1,0-0.1-0.1-0.1
		c-1.3-1.7-1.8-3.2-2.7-6c-1.2-3.7-10.2-33.2-15.4-48c1-2.6,3.7-3.5,10.9-3.5C723,69.9,725,73.1,725.5,75.4z"/>
</g>
<text transform="matrix(1 0 0 1 247.0005 485.4)" class="st4" style="font-family:'QlassikBold'; font-size:128.6446px;">Digital-Entry</text>
<g>
	<rect x="228.9" y="230" class="st5" width="147.7" height="147.7"/>
	<rect x="376.7" y="304.4" class="st5" width="73.3" height="73.3"/>
	<rect x="761" y="228.4" class="st5" width="51" height="51"/>
	<rect x="228.9" y="230" class="st6" width="28.3" height="28.3"/>
	<rect x="348.4" y="377.7" class="st5" width="28.3" height="28.3"/>
	<rect x="336.8" y="406" class="st5" width="11.5" height="11.5"/>
	<rect x="23.4" y="229.7" class="st5" width="28.3" height="28.3"/>
	<rect x="11.8" y="258" class="st5" width="11.5" height="11.5"/>
	<rect x="761" y="271.4" class="st6" width="8" height="8"/>
	<rect x="365.1" y="293.2" class="st6" width="11.5" height="11.5"/>
</g>
<text transform="matrix(1 0 0 1 32.877 352.8926)" class="st4" style="font-family:'OCRAExtended'; font-size:96.5667px;">Digital-Entry</text>
</svg>
