<?xml version="1.0" encoding="utf-8"?>
<!-- Generator: Adobe Illustrator 21.0.0, SVG Export Plug-In . SVG Version: 6.00 Build 0)  -->
<svg version="1.1" id="Layer_1" xmlns="http://www.w3.org/2000/svg" xmlns:xlink="http://www.w3.org/1999/xlink" x="0px" y="0px"
	 viewBox="0 0 800 189" style="enable-background:new 0 0 800 189;" xml:space="preserve">
<style type="text/css">
	.st0{opacity:0.58;}
	.st1{fill:none;stroke:#0DCCC7;stroke-width:12;stroke-linecap:round;stroke-miterlimit:10;}
	.st2{fill:#0DCCC7;}
	.st3{fill:#345ECC;}
	.st4{font-family:'QlassikBold';}
	.st5{font-size:128.6446px;}
	.st6{fill:#274799;}
	.st7{fill:#FFFFFF;}
</style>
<g class="st0">
	<circle class="st1" cx="82.5" cy="93" r="67.5"/>
	<g>
		<path class="st2" d="M44.3,102.6c2.3,0.3,4.1,1,5.7,1.8c1.6,0.8,3.1,1.7,4.4,2.6c2.7,1.8,5,3.8,7.2,5.9c2.2,2.1,4.2,4.2,6.2,6.4
			c2,2.2,3.8,4.4,5.7,6.8l-8.3,0.4c4.1-5.9,8.3-11.6,12.6-17.4c4.3-5.7,8.6-11.4,13-17.1c4.4-5.6,8.9-11.2,13.6-16.7
			c2.4-2.7,4.8-5.4,7.3-8c1.3-1.3,2.6-2.6,4-3.8c1.4-1.2,2.9-2.5,4.7-3.6c1.4-0.9,3.3-0.4,4.2,1c0.9,1.4,0.5,3.2-0.8,4.1l-0.1,0.1
			c-1.2,0.8-2.4,1.9-3.6,3.1c-1.2,1.2-2.4,2.4-3.5,3.7c-2.3,2.6-4.5,5.3-6.7,8.1c-4.3,5.5-8.5,11.2-12.6,17
			c-4.1,5.8-8.1,11.6-12,17.5c-3.9,5.9-7.8,11.8-11.6,17.8l-3.7,5.8l-4.7-5.4c-1.7-1.9-3.6-4-5.5-5.9c-1.9-1.9-3.8-3.7-5.9-5.4
			c-2-1.7-4.1-3.3-6.1-4.5c-1-0.6-2-1.2-3-1.6c-0.9-0.4-1.8-0.6-2.3-0.6c-3.3-0.2-5.8-3-5.6-6.4c0.2-3.3,3-5.8,6.4-5.6
			c0.2,0,0.3,0,0.5,0.1L44.3,102.6z"/>
	</g>
</g>
<text transform="matrix(1 0 0 1 179.0005 131.3799)" class="st3 st4 st5">Digital-Entry</text>
<g>
	<rect x="228.9" y="230" class="st6" width="147.7" height="147.7"/>
	<rect x="376.7" y="304.4" class="st6" width="73.3" height="73.3"/>
	<rect x="761" y="228.4" class="st6" width="51" height="51"/>
	<rect x="228.9" y="230" class="st7" width="28.3" height="28.3"/>
	<rect x="348.4" y="377.7" class="st6" width="28.3" height="28.3"/>
	<rect x="336.8" y="406" class="st6" width="11.5" height="11.5"/>
	<rect x="23.4" y="229.7" class="st6" width="28.3" height="28.3"/>
	<rect x="11.8" y="258" class="st6" width="11.5" height="11.5"/>
	<rect x="761" y="271.4" class="st7" width="8" height="8"/>
	<rect x="365.1" y="293.2" class="st7" width="11.5" height="11.5"/>
</g>
<text transform="matrix(1 0 0 1 32.877 352.8926)" class="st3" style="font-family:'OCRAExtended'; font-size:96.5667px;">Digital-Entry</text>
</svg>
